<?xml version="1.0" encoding="UTF-8"?>
<svg xmlns="http://www.w3.org/2000/svg" width="1400" height="1000" viewBox="0 0 1400 1000" font-family="DejaVu Sans, ui-sans-serif, system-ui, sans-serif" text-rendering="geometricPrecision">
<rect width="1400" height="1000" fill="#FAFAF9"/>
<text x="700" y="38" text-anchor="middle" font-size="18" font-weight="700" fill="#111827">Figure 9 — Top-Down: Physical Accomplishment → Mechanical Switch at the Metal</text><text x="700" y="60" text-anchor="middle" font-size="12" fill="#6B7280" font-style="italic">5 use cases × 7 layers: from a fish caught / a game played / a circuit synthesized → down to the transistor</text><rect x="60" y="85" width="200" height="45" rx="5" fill="#FED7AA" stroke="#9A3412" stroke-width="1.5"/><text x="160" y="105" text-anchor="middle" font-size="11" font-weight="700" fill="#111827">PHYSICAL</text><text x="160" y="119" text-anchor="middle" font-size="11" font-weight="700" fill="#111827">ACCOMPLISHMENT</text><rect x="270" y="85" width="180" height="45" rx="5" fill="#FED7AA" stroke="#9A3412" stroke-width="1.5"/><text x="360" y="105" text-anchor="middle" font-size="11" font-weight="700" fill="#111827">APPLICATION</text><rect x="460" y="85" width="170" height="45" rx="5" fill="#FED7AA" stroke="#9A3412" stroke-width="1.5"/><text x="545" y="105" text-anchor="middle" font-size="11" font-weight="700" fill="#111827">COORDINATION</text><rect x="640" y="85" width="170" height="45" rx="5" fill="#FED7AA" stroke="#9A3412" stroke-width="1.5"/><text x="725" y="105" text-anchor="middle" font-size="11" font-weight="700" fill="#111827">CELL</text><rect x="820" y="85" width="170" height="45" rx="5" fill="#D1FAE5" stroke="#059669" stroke-width="1.5"/><text x="905" y="105" text-anchor="middle" font-size="11" font-weight="700" fill="#111827">SUBSTRATE</text><text x="905" y="119" text-anchor="middle" font-size="11" font-weight="700" fill="#111827">(5+1 opcodes)</text><rect x="1000" y="85" width="180" height="45" rx="5" fill="#DBEAFE" stroke="#1E3A8A" stroke-width="1.5"/><text x="1090" y="105" text-anchor="middle" font-size="11" font-weight="700" fill="#111827">HARDWARE</text><rect x="1200" y="85" width="180" height="45" rx="5" fill="#F3F4F6" stroke="#374151" stroke-width="1.5"/><text x="1290" y="105" text-anchor="middle" font-size="11" font-weight="700" fill="#111827">METAL</text><rect x="60" y="145" width="200" height="130" rx="5" fill="#FFFFFF" stroke="#374151" stroke-width="1.2"/><text x="160" y="175" text-anchor="middle" font-size="11" fill="#111827">Boat catches fish</text><text x="160" y="193" text-anchor="middle" font-size="11" fill="#111827">(EILEEN, Kodiak)</text><rect x="270" y="145" width="180" height="130" rx="5" fill="#FFFFFF" stroke="#374151" stroke-width="1.2"/><text x="360" y="175" text-anchor="middle" font-size="11" fill="#111827">NMEA parse</text><text x="360" y="193" text-anchor="middle" font-size="11" fill="#111827">115200 baud</text><rect x="460" y="145" width="170" height="130" rx="5" fill="#FFFFFF" stroke="#374151" stroke-width="1.2"/><text x="545" y="175" text-anchor="middle" font-size="11" fill="#111827">Vessel limb</text><text x="545" y="193" text-anchor="middle" font-size="11" fill="#111827">(predict day)</text><rect x="640" y="145" width="170" height="130" rx="5" fill="#FFFFFF" stroke="#374151" stroke-width="1.2"/><text x="725" y="175" text-anchor="middle" font-size="11" fill="#111827">10-cell</text><text x="725" y="193" text-anchor="middle" font-size="11" fill="#111827">vessel</text><rect x="820" y="145" width="170" height="130" rx="5" fill="#D1FAE5" stroke="#059669" stroke-width="1.2"/><text x="905" y="175" text-anchor="middle" font-size="11" fill="#111827">5 opcodes</text><text x="905" y="193" text-anchor="middle" font-size="11" fill="#111827">(C VM)</text><rect x="1000" y="145" width="180" height="130" rx="5" fill="#FFFFFF" stroke="#374151" stroke-width="1.2"/><text x="1090" y="175" text-anchor="middle" font-size="11" fill="#111827">ESP32-S3</text><text x="1090" y="193" text-anchor="middle" font-size="11" fill="#111827">240 MHz</text><rect x="1200" y="145" width="180" height="130" rx="5" fill="#FFFFFF" stroke="#374151" stroke-width="1.2"/><text x="1290" y="175" text-anchor="middle" font-size="11" fill="#111827">6T SRAM</text><text x="1290" y="193" text-anchor="middle" font-size="11" fill="#111827">400 transistors</text><text x="1290" y="211" text-anchor="middle" font-size="11" fill="#111827">per BIND</text><line x1="263" y1="210" x2="267" y2="210" stroke="#374151" stroke-width="1" marker-end="url(#a2)"/><line x1="453" y1="210" x2="457" y2="210" stroke="#374151" stroke-width="1" marker-end="url(#a2)"/><line x1="633" y1="210" x2="637" y2="210" stroke="#374151" stroke-width="1" marker-end="url(#a2)"/><line x1="813" y1="210" x2="817" y2="210" stroke="#374151" stroke-width="1" marker-end="url(#a2)"/><line x1="993" y1="210" x2="997" y2="210" stroke="#374151" stroke-width="1" marker-end="url(#a2)"/><line x1="1183" y1="210" x2="1197" y2="210" stroke="#374151" stroke-width="1" marker-end="url(#a2)"/><rect x="60" y="283" width="200" height="130" rx="5" fill="#FFFFFF" stroke="#374151" stroke-width="1.2"/><text x="160" y="313" text-anchor="middle" font-size="11" fill="#111827">Oil pressure</text><text x="160" y="331" text-anchor="middle" font-size="11" fill="#111827">monitored (60 psi)</text><rect x="270" y="283" width="180" height="130" rx="5" fill="#FFFFFF" stroke="#374151" stroke-width="1.2"/><text x="360" y="313" text-anchor="middle" font-size="11" fill="#111827">ADC → mV → psi</text><text x="360" y="331" text-anchor="middle" font-size="11" fill="#111827">12-bit, 100ms</text><rect x="460" y="283" width="170" height="130" rx="5" fill="#FFFFFF" stroke="#374151" stroke-width="1.2"/><text x="545" y="313" text-anchor="middle" font-size="11" fill="#111827">Twin-posting</text><text x="545" y="331" text-anchor="middle" font-size="11" fill="#111827">(snap_debt)</text><rect x="640" y="283" width="170" height="130" rx="5" fill="#FFFFFF" stroke="#374151" stroke-width="1.2"/><text x="725" y="313" text-anchor="middle" font-size="11" fill="#111827">1 cell</text><text x="725" y="331" text-anchor="middle" font-size="11" fill="#111827">+ ledger</text><rect x="820" y="283" width="170" height="130" rx="5" fill="#D1FAE5" stroke="#059669" stroke-width="1.2"/><text x="905" y="313" text-anchor="middle" font-size="11" fill="#111827">5 opcodes</text><text x="905" y="331" text-anchor="middle" font-size="11" fill="#111827">(generated)</text><rect x="1000" y="283" width="180" height="130" rx="5" fill="#FFFFFF" stroke="#374151" stroke-width="1.2"/><text x="1090" y="313" text-anchor="middle" font-size="11" fill="#111827">ESP32-S3</text><text x="1090" y="331" text-anchor="middle" font-size="11" fill="#111827">ADC1_CH3</text><rect x="1200" y="283" width="180" height="130" rx="5" fill="#FFFFFF" stroke="#374151" stroke-width="1.2"/><text x="1290" y="313" text-anchor="middle" font-size="11" fill="#111827">SAR ADC</text><text x="1290" y="331" text-anchor="middle" font-size="11" fill="#111827">72 transistors</text><text x="1290" y="349" text-anchor="middle" font-size="11" fill="#111827">Schmitt 33ns</text><line x1="263" y1="348" x2="267" y2="348" stroke="#374151" stroke-width="1" marker-end="url(#a2)"/><line x1="453" y1="348" x2="457" y2="348" stroke="#374151" stroke-width="1" marker-end="url(#a2)"/><line x1="633" y1="348" x2="637" y2="348" stroke="#374151" stroke-width="1" marker-end="url(#a2)"/><line x1="813" y1="348" x2="817" y2="348" stroke="#374151" stroke-width="1" marker-end="url(#a2)"/><line x1="993" y1="348" x2="997" y2="348" stroke="#374151" stroke-width="1" marker-end="url(#a2)"/><line x1="1183" y1="348" x2="1197" y2="348" stroke="#374151" stroke-width="1" marker-end="url(#a2)"/><rect x="60" y="421" width="200" height="130" rx="5" fill="#FFFFFF" stroke="#374151" stroke-width="1.2"/><text x="160" y="451" text-anchor="middle" font-size="11" fill="#111827">Music bar judged</text><text x="160" y="469" text-anchor="middle" font-size="11" fill="#111827">(aesthetic verdict)</text><rect x="270" y="421" width="180" height="130" rx="5" fill="#FFFFFF" stroke="#374151" stroke-width="1.2"/><text x="360" y="451" text-anchor="middle" font-size="11" fill="#111827">6-channel</text><text x="360" y="469" text-anchor="middle" font-size="11" fill="#111827">micro-units</text><rect x="460" y="421" width="170" height="130" rx="5" fill="#FFFFFF" stroke="#374151" stroke-width="1.2"/><text x="545" y="451" text-anchor="middle" font-size="11" fill="#111827">Critic's</text><text x="545" y="469" text-anchor="middle" font-size="11" fill="#111827">verdict</text><rect x="640" y="421" width="170" height="130" rx="5" fill="#FFFFFF" stroke="#374151" stroke-width="1.2"/><text x="725" y="451" text-anchor="middle" font-size="11" fill="#111827">1 cell</text><text x="725" y="469" text-anchor="middle" font-size="11" fill="#111827">gate</text><rect x="820" y="421" width="170" height="130" rx="5" fill="#D1FAE5" stroke="#059669" stroke-width="1.2"/><text x="905" y="451" text-anchor="middle" font-size="11" fill="#111827">Integer</text><text x="905" y="469" text-anchor="middle" font-size="11" fill="#111827">judge</text><rect x="1000" y="421" width="180" height="130" rx="5" fill="#FFFFFF" stroke="#374151" stroke-width="1.2"/><text x="1090" y="451" text-anchor="middle" font-size="11" fill="#111827">ESP32-S3</text><text x="1090" y="469" text-anchor="middle" font-size="11" fill="#111827">radio-dark</text><rect x="1200" y="421" width="180" height="130" rx="5" fill="#FFFFFF" stroke="#374151" stroke-width="1.2"/><text x="1290" y="451" text-anchor="middle" font-size="11" fill="#111827">Integer ALU</text><text x="1290" y="469" text-anchor="middle" font-size="11" fill="#111827">24 cycles</text><text x="1290" y="487" text-anchor="middle" font-size="11" fill="#111827">100ns</text><line x1="263" y1="486" x2="267" y2="486" stroke="#374151" stroke-width="1" marker-end="url(#a2)"/><line x1="453" y1="486" x2="457" y2="486" stroke="#374151" stroke-width="1" marker-end="url(#a2)"/><line x1="633" y1="486" x2="637" y2="486" stroke="#374151" stroke-width="1" marker-end="url(#a2)"/><line x1="813" y1="486" x2="817" y2="486" stroke="#374151" stroke-width="1" marker-end="url(#a2)"/><line x1="993" y1="486" x2="997" y2="486" stroke="#374151" stroke-width="1" marker-end="url(#a2)"/><line x1="1183" y1="486" x2="1197" y2="486" stroke="#374151" stroke-width="1" marker-end="url(#a2)"/><rect x="60" y="559" width="200" height="130" rx="5" fill="#FFFFFF" stroke="#374151" stroke-width="1.2"/><text x="160" y="589" text-anchor="middle" font-size="11" fill="#111827">Game runs live</text><text x="160" y="607" text-anchor="middle" font-size="11" fill="#111827">(Scrapcraft)</text><rect x="270" y="559" width="180" height="130" rx="5" fill="#FFFFFF" stroke="#374151" stroke-width="1.2"/><text x="360" y="589" text-anchor="middle" font-size="11" fill="#111827">2Hz game tick</text><text x="360" y="607" text-anchor="middle" font-size="11" fill="#111827">WebSocket</text><rect x="460" y="559" width="170" height="130" rx="5" fill="#FFFFFF" stroke="#374151" stroke-width="1.2"/><text x="545" y="589" text-anchor="middle" font-size="11" fill="#111827">Ghost racers</text><text x="545" y="607" text-anchor="middle" font-size="11" fill="#111827">+ Spark AI</text><rect x="640" y="559" width="170" height="130" rx="5" fill="#FFFFFF" stroke="#374151" stroke-width="1.2"/><text x="725" y="589" text-anchor="middle" font-size="11" fill="#111827">55 cells</text><text x="725" y="607" text-anchor="middle" font-size="11" fill="#111827">7 groups</text><rect x="820" y="559" width="170" height="130" rx="5" fill="#D1FAE5" stroke="#059669" stroke-width="1.2"/><text x="905" y="589" text-anchor="middle" font-size="11" fill="#111827">Reactive</text><text x="905" y="607" text-anchor="middle" font-size="11" fill="#111827">TS runtime</text><rect x="1000" y="559" width="180" height="130" rx="5" fill="#FFFFFF" stroke="#374151" stroke-width="1.2"/><text x="1090" y="589" text-anchor="middle" font-size="11" fill="#111827">Cloudflare</text><text x="1090" y="607" text-anchor="middle" font-size="11" fill="#111827">Worker</text><rect x="1200" y="559" width="180" height="130" rx="5" fill="#FFFFFF" stroke="#374151" stroke-width="1.2"/><text x="1290" y="589" text-anchor="middle" font-size="11" fill="#111827">V8 isolate</text><text x="1290" y="607" text-anchor="middle" font-size="11" fill="#111827">x86_64 JIT</text><text x="1290" y="625" text-anchor="middle" font-size="11" fill="#111827">NVMe SSD</text><line x1="263" y1="624" x2="267" y2="624" stroke="#374151" stroke-width="1" marker-end="url(#a2)"/><line x1="453" y1="624" x2="457" y2="624" stroke="#374151" stroke-width="1" marker-end="url(#a2)"/><line x1="633" y1="624" x2="637" y2="624" stroke="#374151" stroke-width="1" marker-end="url(#a2)"/><line x1="813" y1="624" x2="817" y2="624" stroke="#374151" stroke-width="1" marker-end="url(#a2)"/><line x1="993" y1="624" x2="997" y2="624" stroke="#374151" stroke-width="1" marker-end="url(#a2)"/><line x1="1183" y1="624" x2="1197" y2="624" stroke="#374151" stroke-width="1" marker-end="url(#a2)"/><rect x="60" y="697" width="200" height="130" rx="5" fill="#FFFFFF" stroke="#374151" stroke-width="1.2"/><text x="160" y="727" text-anchor="middle" font-size="11" fill="#111827">Fabric synthesized</text><text x="160" y="745" text-anchor="middle" font-size="11" fill="#111827">(FPGA, 44.43 MHz)</text><rect x="270" y="697" width="180" height="130" rx="5" fill="#FFFFFF" stroke="#374151" stroke-width="1.2"/><text x="360" y="727" text-anchor="middle" font-size="11" fill="#111827">22-state FSM</text><text x="360" y="745" text-anchor="middle" font-size="11" fill="#111827">(RTL)</text><rect x="460" y="697" width="170" height="130" rx="5" fill="#FFFFFF" stroke="#374151" stroke-width="1.2"/><text x="545" y="727" text-anchor="middle" font-size="11" fill="#111827">Q2 tick-</text><text x="545" y="745" text-anchor="middle" font-size="11" fill="#111827">non-deferrable</text><rect x="640" y="697" width="170" height="130" rx="5" fill="#FFFFFF" stroke="#374151" stroke-width="1.2"/><text x="725" y="727" text-anchor="middle" font-size="11" fill="#111827">2 cells</text><text x="725" y="745" text-anchor="middle" font-size="11" fill="#111827">+ echo gate</text><rect x="820" y="697" width="170" height="130" rx="5" fill="#D1FAE5" stroke="#059669" stroke-width="1.2"/><text x="905" y="727" text-anchor="middle" font-size="11" fill="#111827">5 opcodes</text><text x="905" y="745" text-anchor="middle" font-size="11" fill="#111827">as RTL</text><rect x="1000" y="697" width="180" height="130" rx="5" fill="#FFFFFF" stroke="#374151" stroke-width="1.2"/><text x="1090" y="727" text-anchor="middle" font-size="11" fill="#111827">iCE40 HX8K</text><text x="1090" y="745" text-anchor="middle" font-size="11" fill="#111827">98% LC</text><rect x="1200" y="697" width="180" height="130" rx="5" fill="#FFFFFF" stroke="#374151" stroke-width="1.2"/><text x="1290" y="727" text-anchor="middle" font-size="11" fill="#111827">LUT4 SRAM</text><text x="1290" y="745" text-anchor="middle" font-size="11" fill="#111827">96 transistors</text><text x="1290" y="763" text-anchor="middle" font-size="11" fill="#111827">633K total</text><line x1="263" y1="762" x2="267" y2="762" stroke="#374151" stroke-width="1" marker-end="url(#a2)"/><line x1="453" y1="762" x2="457" y2="762" stroke="#374151" stroke-width="1" marker-end="url(#a2)"/><line x1="633" y1="762" x2="637" y2="762" stroke="#374151" stroke-width="1" marker-end="url(#a2)"/><line x1="813" y1="762" x2="817" y2="762" stroke="#374151" stroke-width="1" marker-end="url(#a2)"/><line x1="993" y1="762" x2="997" y2="762" stroke="#374151" stroke-width="1" marker-end="url(#a2)"/><line x1="1183" y1="762" x2="1197" y2="762" stroke="#374151" stroke-width="1" marker-end="url(#a2)"/><defs><marker id="a2" markerWidth="6" markerHeight="6" refX="5" refY="2" orient="auto"><path d="M0,0 L0,4 L5,2 z" fill="#374151"/></marker></defs><text x="700" y="855" text-anchor="middle" font-size="12" font-weight="700" fill="#111827">Every use case traces from a physical accomplishment to a mechanical switch at the metal.</text><text x="700" y="873" text-anchor="middle" font-size="11" fill="#6B7280" font-style="italic">The chain is unbroken: fish → NMEA → cell → opcode → SRAM → transistor. Each layer maps to the next.</text></svg>
